<svg width="139" height="36" viewBox="0 0 139 36" fill="none" xmlns="http://www.w3.org/2000/svg">
<path d="M138.393 1.47363V24.9998H129.233V19.7152C126.297 23.3166 122.265 25.7827 115.767 25.7827C108.76 25.7827 103.984 22.7294 103.984 14.0784V1.47363H113.144V10.6336C113.144 15.8399 114.906 18.2669 120.347 18.2669C126.062 18.2669 129.233 15.7616 129.233 10.751V1.47363H138.393Z" fill="#F7F471"/>
<path d="M75.9258 25V1.47384H84.9683V6.60183C87.3562 2.33501 90.3312 0.690918 94.4806 0.690918C96.6727 0.690918 98.2776 1.04323 100.196 1.86528V9.73346C97.6122 8.79397 96.0464 8.55909 94.1283 8.55909C91.5055 8.55909 88.0999 9.30285 84.9683 13.4914V25H75.9258Z" fill="#F7F471"/>
<path d="M72.3412 1.47363V24.9998H63.1812V19.7152C60.2453 23.3166 56.2134 25.7827 49.7153 25.7827C42.7083 25.7827 37.9326 22.7294 37.9326 14.0784V1.47363H47.0926V10.6336C47.0926 15.8399 48.8541 18.2669 54.2953 18.2669C60.0105 18.2669 63.1812 15.7616 63.1812 10.751V1.47363H72.3412Z" fill="#F7F471"/>
<path d="M18.085 35.1778C12.683 35.1778 7.51586 34.5515 1.2135 33.2205L2.58358 26.5267C8.80765 27.7011 12.4481 28.1317 16.4801 28.1317C23.0565 28.1317 25.3269 26.6833 25.3269 23.1602V20.4592C23.0565 23.8257 19.0245 25.7829 13.9357 25.7829C5.48032 25.7829 0 20.8898 0 13.2565C0 5.66235 5.48032 0.690918 13.9357 0.690918C19.0245 0.690918 23.0565 2.68732 25.3269 6.0538V1.47384H34.3694V22.6905C34.3694 31.185 29.5154 35.1778 18.085 35.1778ZM9.47312 13.2565C9.47312 16.3098 12.2524 18.2671 17.0281 18.2671C21.8821 18.2671 24.9354 16.5447 25.3269 13.8437V12.6693C24.9354 9.96832 21.8821 8.2068 17.0281 8.2068C12.2524 8.2068 9.47312 10.2032 9.47312 13.2565Z" fill="#F7F471"/>
</svg>
