<svg width="82" height="30" viewBox="0 0 82 30" fill="none" xmlns="http://www.w3.org/2000/svg">
<path d="M79.134 10.6714V23.9323H73.9709V20.9535C72.3161 22.9835 70.0434 24.3735 66.3807 24.3735C62.4311 24.3735 59.7393 22.6525 59.7393 17.7762V10.6714H64.9024V15.8345C64.9024 18.7691 65.8953 20.1371 68.9623 20.1371C72.1837 20.1371 73.9709 18.725 73.9709 15.9007V10.6714H79.134Z" fill="#F7F471"/>
<path d="M43.9241 23.9323V10.6714H49.021V13.5619C50.3669 11.1568 52.0438 10.2301 54.3827 10.2301C55.6183 10.2301 56.523 10.4287 57.6041 10.8921V15.3271C56.1479 14.7975 55.2653 14.6651 54.1841 14.6651C52.7058 14.6651 50.7862 15.0843 49.021 17.4453V23.9323H43.9241Z" fill="#F7F471"/>
<path d="M41.3399 10.6714V23.9323H36.1767V20.9535C34.5219 22.9835 32.2492 24.3735 28.5865 24.3735C24.637 24.3735 21.9451 22.6525 21.9451 17.7762V10.6714H27.1082V15.8345C27.1082 18.7691 28.1011 20.1371 31.1681 20.1371C34.3895 20.1371 36.1767 18.725 36.1767 15.9007V10.6714H41.3399Z" fill="#F7F471"/>
<path d="M10.1939 29.6691C7.14893 29.6691 4.23641 29.316 0.684003 28.5658L1.45626 24.7928C4.96454 25.4547 7.01655 25.6974 9.2892 25.6974C12.9961 25.6974 14.2758 24.881 14.2758 22.8952V21.3728C12.9961 23.2703 10.7234 24.3735 7.855 24.3735C3.08905 24.3735 0 21.6155 0 17.3129C0 13.0323 3.08905 10.2301 7.855 10.2301C10.7234 10.2301 12.9961 11.3554 14.2758 13.253V10.6714H19.3727V22.6304C19.3727 27.4185 16.6367 29.6691 10.1939 29.6691ZM5.33964 17.3129C5.33964 19.0339 6.90622 20.1371 9.59811 20.1371C12.3341 20.1371 14.0552 19.1663 14.2758 17.6438V16.9819C14.0552 15.4594 12.3341 14.4665 9.59811 14.4665C6.90622 14.4665 5.33964 15.5918 5.33964 17.3129Z" fill="#F7F471"/>
<path d="M76.8861 7.13086V5.05683L73.4062 0.978199H74.8641L77.4675 4.09358L80.0796 0.978199H81.5201L78.0489 5.05683V7.13086H76.8861Z" fill="#FFFD91"/>
<path d="M66.459 7.13086V0.978199H72.5162V1.87203H67.6218V3.63365H72.3426V4.46673H67.6218V6.22835H72.5162V7.13086H66.459Z" fill="#FFFD91"/>
<path d="M57.476 7.13086V0.978199H59.1855L63.8369 6.08083V0.978199H64.991V7.13086H63.2902L58.6388 2.02823V7.13086H57.476Z" fill="#FFFD91"/>
<path d="M49.0691 7.13086V0.978199H53.7812C55.4127 0.978199 56.1763 1.59433 56.1763 2.7485C56.1763 3.56423 55.7337 4.11961 54.892 4.33656C55.6383 4.3626 56.1329 4.78782 56.1329 5.51676V7.13086H54.9788V5.68164C54.9788 5.12626 54.7011 4.89195 54.1457 4.89195H50.2319V7.13086H49.0691ZM50.2319 3.93738H53.5382C54.4754 3.93738 54.9788 3.65101 54.9788 2.9047C54.9788 2.16708 54.4754 1.92409 53.5382 1.92409H50.2319V3.93738Z" fill="#FFFD91"/>
<path d="M44.2299 7.30442C41.5571 7.30442 40.6372 6.01141 40.6372 4.12829V0.978199H41.8001V4.09358C41.8001 5.21303 42.2513 6.31513 44.2299 6.31513C46.1998 6.31513 46.651 5.20436 46.651 4.09358V0.978199H47.8139V4.12829C47.8139 6.01141 46.894 7.30442 44.2299 7.30442Z" fill="#FFFD91"/>
<path d="M35.4422 7.30442C32.9516 7.30442 31.3635 6.02009 31.3635 4.05019C31.3635 2.08898 32.9516 0.821999 35.4422 0.821999C37.9241 0.821999 39.5121 2.09766 39.5121 4.05019C39.5121 6.02009 37.9241 7.30442 35.4422 7.30442ZM32.5698 4.05019C32.5698 5.39527 33.6545 6.31514 35.4422 6.31514C37.2211 6.31514 38.3146 5.3866 38.3146 4.05019C38.3146 2.72247 37.2298 1.80261 35.4422 1.80261C33.6545 1.80261 32.5698 2.72247 32.5698 4.05019Z" fill="#FFFD91"/>
<path d="M26.8694 7.26103C24.4136 7.26103 23.4503 6.06347 23.4503 4.0849H24.6132C24.6132 5.24775 25.0384 6.27174 26.8694 6.27174C28.7005 6.27174 29.117 5.23907 29.117 4.0849V1.96748H26.262V0.978199H30.2799V4.0849C30.2799 6.05479 29.3513 7.26103 26.8694 7.26103Z" fill="#FFFD91"/>
<path d="M15.2048 7.13086V0.978199H19.214C21.0798 0.978199 22.4596 2.27989 22.4596 4.05019C22.4596 5.82049 21.0798 7.13086 19.214 7.13086H15.2048ZM16.3677 6.14157H18.7628C20.2814 6.14157 21.262 5.31717 21.262 4.05019C21.262 2.79189 20.2814 1.96748 18.7628 1.96748H16.3677V6.14157Z" fill="#FFFD91"/>
<path d="M12.5862 7.13086V0.978199H13.749V7.13086H12.5862Z" fill="#FFFD91"/>
<path d="M1.92517 7.13086V0.978199H3.67812L6.53316 5.87256L9.37952 0.978199H11.1238V7.13086H9.96962V2.08898L7.07119 7.13086H5.98645L3.08802 2.08898V7.13086H1.92517Z" fill="#FFFD91"/>
</svg>
